<svg version="1.1" viewBox="0.0 0.0 900.6430446194225 694.3910761154856" fill="none" stroke="none" stroke-linecap="square" stroke-miterlimit="10" xmlns:xlink="http://www.w3.org/1999/xlink" xmlns="http://www.w3.org/2000/svg"><clipPath id="p.0"><path d="m0 0l900.64307 0l0 694.39105l-900.64307 0l0 -694.39105z" clip-rule="nonzero"/></clipPath><g clip-path="url(#p.0)"><path fill="#f3f3f3" d="m0 0l900.64307 0l0 694.39105l-900.64307 0z" fill-rule="evenodd"/><path fill="#000000" fill-opacity="0.0" d="m334.80402 382.35812l0 0c0 -4.3371887 3.5159912 -7.85318 7.85318 -7.85318l98.18341 0c2.0827942 0 4.080261 0.8273926 5.5530396 2.3001404c1.4727478 1.4727478 2.3001404 3.4702454 2.3001404 5.5530396l0 31.411743c0 4.3371887 -3.5159912 7.85318 -7.85318 7.85318l-98.18341 0c-4.3371887 0 -7.85318 -3.5159912 -7.85318 -7.85318z" fill-rule="evenodd"/><path stroke="#000000" stroke-width="1.0" stroke-linejoin="round" stroke-linecap="butt" d="m334.80402 382.35812l0 0c0 -4.3371887 3.5159912 -7.85318 7.85318 -7.85318l98.18341 0c2.0827942 0 4.080261 0.8273926 5.5530396 2.3001404c1.4727478 1.4727478 2.3001404 3.4702454 2.3001404 5.5530396l0 31.411743c0 4.3371887 -3.5159912 7.85318 -7.85318 7.85318l-98.18341 0c-4.3371887 0 -7.85318 -3.5159912 -7.85318 -7.85318z" fill-rule="evenodd"/><path fill="#000000" fill-opacity="0.0" d="m334.80402 306.55496l0 0c0 -4.3371887 3.5159912 -7.85318 7.85318 -7.85318l98.18341 0c2.0827942 0 4.080261 0.8273926 5.5530396 2.3001404c1.4727478 1.4727783 2.3001404 3.4702454 2.3001404 5.5530396l0 31.411774c0 4.3371887 -3.5159912 7.8531494 -7.85318 7.8531494l-98.18341 0c-4.3371887 0 -7.85318 -3.5159607 -7.85318 -7.8531494z" fill-rule="evenodd"/><path stroke="#000000" stroke-width="1.0" stroke-linejoin="round" stroke-linecap="butt" d="m334.80402 306.55496l0 0c0 -4.3371887 3.5159912 -7.85318 7.85318 -7.85318l98.18341 0c2.0827942 0 4.080261 0.8273926 5.5530396 2.3001404c1.4727478 1.4727783 2.3001404 3.4702454 2.3001404 5.5530396l0 31.411774c0 4.3371887 -3.5159912 7.8531494 -7.85318 7.8531494l-98.18341 0c-4.3371887 0 -7.85318 -3.5159607 -7.85318 -7.8531494z" fill-rule="evenodd"/><path fill="#000000" fill-opacity="0.0" d="m334.80402 230.75182l0 0c0 -4.3371887 3.5159912 -7.85318 7.85318 -7.85318l98.18341 0c2.0827942 0 4.080261 0.8273926 5.5530396 2.3001404c1.4727478 1.4727631 2.3001404 3.4702454 2.3001404 5.5530396l0 31.411758c0 4.3371887 -3.5159912 7.85318 -7.85318 7.85318l-98.18341 0c-4.3371887 0 -7.85318 -3.5159912 -7.85318 -7.85318z" fill-rule="evenodd"/><path stroke="#000000" stroke-width="1.0" stroke-linejoin="round" stroke-linecap="butt" d="m334.80402 230.75182l0 0c0 -4.3371887 3.5159912 -7.85318 7.85318 -7.85318l98.18341 0c2.0827942 0 4.080261 0.8273926 5.5530396 2.3001404c1.4727478 1.4727631 2.3001404 3.4702454 2.3001404 5.5530396l0 31.411758c0 4.3371887 -3.5159912 7.85318 -7.85318 7.85318l-98.18341 0c-4.3371887 0 -7.85318 -3.5159912 -7.85318 -7.85318z" fill-rule="evenodd"/><path fill="#000000" fill-opacity="0.0" d="m334.80402 154.94867l0 0c0 -4.3371887 3.5159912 -7.85318 7.85318 -7.85318l98.18341 0c2.0827942 0 4.080261 0.8273926 5.5530396 2.3001404c1.4727478 1.4727631 2.3001404 3.4702454 2.3001404 5.5530396l0 31.411758c0 4.3371887 -3.5159912 7.85318 -7.85318 7.85318l-98.18341 0c-4.3371887 0 -7.85318 -3.5159912 -7.85318 -7.85318z" fill-rule="evenodd"/><path stroke="#000000" stroke-width="1.0" stroke-linejoin="round" stroke-linecap="butt" d="m334.80402 154.94867l0 0c0 -4.3371887 3.5159912 -7.85318 7.85318 -7.85318l98.18341 0c2.0827942 0 4.080261 0.8273926 5.5530396 2.3001404c1.4727478 1.4727631 2.3001404 3.4702454 2.3001404 5.5530396l0 31.411758c0 4.3371887 -3.5159912 7.85318 -7.85318 7.85318l-98.18341 0c-4.3371887 0 -7.85318 -3.5159912 -7.85318 -7.85318z" fill-rule="evenodd"/><path fill="#000000" fill-opacity="0.0" d="m416.11633 58.163887l0 0c0 -4.3371887 3.5159912 -7.8531723 7.85318 -7.8531723l98.18344 0c2.0827637 0 4.080261 0.82738495 5.5530396 2.3001404c1.4727173 1.4727554 2.3001099 3.4702415 2.3001099 5.553032l0 31.411758c0 4.3371887 -3.5159912 7.85318 -7.8531494 7.85318l-98.18344 0c-4.3371887 0 -7.85318 -3.5159912 -7.85318 -7.85318z" fill-rule="evenodd"/><path stroke="#000000" stroke-width="1.0" stroke-linejoin="round" stroke-linecap="butt" d="m416.11633 58.163887l0 0c0 -4.3371887 3.5159912 -7.8531723 7.85318 -7.8531723l98.18344 0c2.0827637 0 4.080261 0.82738495 5.5530396 2.3001404c1.4727173 1.4727554 2.3001099 3.4702415 2.3001099 5.553032l0 31.411758c0 4.3371887 -3.5159912 7.85318 -7.8531494 7.85318l-98.18344 0c-4.3371887 0 -7.85318 -3.5159912 -7.85318 -7.85318z" fill-rule="evenodd"/><path fill="#000000" fill-opacity="0.0" d="m578.7384 58.163887l0 0c0 -4.3371887 3.5159912 -7.8531723 7.8531494 -7.8531723l98.18341 0c2.0828247 0 4.0803223 0.82738495 5.5530396 2.3001404c1.4727783 1.4727554 2.300171 3.4702415 2.300171 5.553032l0 31.411758c0 4.3371887 -3.5159912 7.85318 -7.8532104 7.85318l-98.18341 0c-4.337158 0 -7.8531494 -3.5159912 -7.8531494 -7.85318z" fill-rule="evenodd"/><path stroke="#000000" stroke-width="1.0" stroke-linejoin="round" stroke-linecap="butt" d="m578.7384 58.163887l0 0c0 -4.3371887 3.5159912 -7.8531723 7.8531494 -7.8531723l98.18341 0c2.0828247 0 4.0803223 0.82738495 5.5530396 2.3001404c1.4727783 1.4727554 2.300171 3.4702415 2.300171 5.553032l0 31.411758c0 4.3371887 -3.5159912 7.85318 -7.8532104 7.85318l-98.18341 0c-4.337158 0 -7.8531494 -3.5159912 -7.8531494 -7.85318z" fill-rule="evenodd"/><path fill="#000000" fill-opacity="0.0" d="m253.4943 58.163887l0 0c0 -4.3371887 3.5159912 -7.8531723 7.85318 -7.8531723l98.18341 0c2.0827942 0 4.0802917 0.82738495 5.5530396 2.3001404c1.4727478 1.4727554 2.3001404 3.4702415 2.3001404 5.553032l0 31.411758c0 4.3371887 -3.5159912 7.85318 -7.85318 7.85318l-98.18341 0c-4.3371887 0 -7.85318 -3.5159912 -7.85318 -7.85318z" fill-rule="evenodd"/><path stroke="#000000" stroke-width="1.0" stroke-linejoin="round" stroke-linecap="butt" d="m253.4943 58.163887l0 0c0 -4.3371887 3.5159912 -7.8531723 7.85318 -7.8531723l98.18341 0c2.0827942 0 4.0802917 0.82738495 5.5530396 2.3001404c1.4727478 1.4727554 2.3001404 3.4702415 2.3001404 5.553032l0 31.411758c0 4.3371887 -3.5159912 7.85318 -7.85318 7.85318l-98.18341 0c-4.3371887 0 -7.85318 -3.5159912 -7.85318 -7.85318z" fill-rule="evenodd"/><path fill="#000000" fill-opacity="0.0" d="m310.43918 97.428825l81.322845 49.66929" fill-rule="evenodd"/><path stroke="#000000" stroke-width="1.0" stroke-linejoin="round" stroke-linecap="butt" d="m310.43918 97.428825l81.322845 49.66929" fill-rule="evenodd"/><path fill="#000000" fill-opacity="0.0" d="m473.06122 97.428825l-81.322815 49.66929" fill-rule="evenodd"/><path stroke="#000000" stroke-width="1.0" stroke-linejoin="round" stroke-linecap="butt" d="m473.06122 97.428825l-81.322815 49.66929" fill-rule="evenodd"/><path fill="#000000" fill-opacity="0.0" d="m391.7489 194.21361l0 28.692902" fill-rule="evenodd"/><path stroke="#000000" stroke-width="1.0" stroke-linejoin="round" stroke-linecap="butt" d="m391.7489 194.21361l0 28.692902" fill-rule="evenodd"/><path fill="#000000" fill-opacity="0.0" d="m391.7489 270.01675l0 28.692902" fill-rule="evenodd"/><path stroke="#000000" stroke-width="1.0" stroke-linejoin="round" stroke-linecap="butt" d="m391.7489 270.01675l0 28.692902" fill-rule="evenodd"/><path fill="#000000" fill-opacity="0.0" d="m391.7489 345.8199l0 28.692932" fill-rule="evenodd"/><path stroke="#000000" stroke-width="1.0" stroke-linejoin="round" stroke-linecap="butt" d="m391.7489 345.8199l0 28.692932" fill-rule="evenodd"/><path fill="#000000" fill-opacity="0.0" d="m530.0061 73.86977l48.724426 0" fill-rule="evenodd"/><path stroke="#000000" stroke-width="1.0" stroke-linejoin="round" stroke-linecap="butt" d="m530.0061 73.86977l48.724426 0" fill-rule="evenodd"/><path fill="#000000" fill-opacity="0.0" d="m341.90552 374.50394l99.68503 0l0 28.692902l-99.68503 0z" fill-rule="evenodd"/><path fill="#000000" d="m368.55338 394.22083l0 -1.484375l-3.265625 0l0 1.484375l3.265625 0zm0 1.40625l-3.265625 0l0 1.5625l3.265625 0l0 -1.5625zm-0.234375 5.875q0.234375 0 0.234375 -0.234375l0 -2.671875l-3.265625 0l0 4.46875l-1.484375 0l0 -11.734375l6.234375 0l0 10.3125q0 1.265625 -1.1875 1.265625l-1.484375 0l-0.375 -1.40625l1.328125 0zm3.859375 -9.796875l1.484375 0l0 8.53125l-1.484375 0l0 -8.53125zm3.796875 9.71875q0.21875 0 0.21875 -0.21875l0 -10.09375l1.40625 0q0.75 0.140625 0.078125 0.59375l0 9.875q0 1.25 -1.1875 1.25l-1.640625 0l-0.296875 -1.40625l1.421875 0zm-1.265625 -14.46875q-0.453125 0.8125 -1.109375 1.84375l5.640625 0l0 1.421875l-17.078125 0l0 -1.421875l5.046875 0q-0.4375 -1.03125 -1.03125 -1.78125l1.328125 -0.734375q0.8125 0.8125 1.640625 2.515625l2.734375 0q0.828125 -1.40625 1.34375 -2.8125l1.703125 0.59375q0.296875 0.296875 -0.21875 0.375z" fill-rule="nonzero"/><path fill="#000000" d="m400.57202 388.1427l-2.0 0l0 14.921875l-1.484375 0l0 -16.109375l3.78125 0l0.21875 -0.453125l1.484375 1.109375l-0.359375 0.375l-1.640625 4.75q2.234375 3.5625 1.703125 5.71875q-0.296875 1.328125 -1.546875 1.328125l-1.1875 0l-0.234375 -1.625l0.828125 0q0.8125 0 0.734375 -0.75q-0.140625 -2.890625 -1.625 -4.75l1.328125 -4.515625zm0.59375 13.359375q4.609375 -0.671875 4.234375 -5.578125l-2.75 0l0 -1.40625l11.140625 0l0 1.40625l-3.71875 0l0 4.984375q0 0.359375 0.453125 0.359375l1.25 0q0.234375 0 0.296875 -0.296875l0.296875 -1.703125l1.484375 0.375l-0.296875 1.859375q-0.21875 1.1875 -1.25 1.1875l-2.375 0q-1.34375 0 -1.34375 -1.265625l0 -5.5l-1.703125 0q0.4375 6.171875 -5.125 7.0625l-0.59375 -1.484375zm10.3125 -8.6875l-6.75 0l0 -1.40625l6.75 0l0 1.40625zm-8.90625 -4.453125l4.53125 0l0 -2.296875l1.40625 0q0.59375 0.0625 0.078125 0.4375l0 1.859375l4.90625 0l0 3.859375l-1.484375 0l0 -2.671875l-7.953125 0l0 2.671875l-1.484375 0l0 -3.859375z" fill-rule="nonzero"/><path fill="#000000" fill-opacity="0.0" d="m341.90552 232.11417l99.68503 0l0 28.692932l-99.68503 0z" fill-rule="evenodd"/><path fill="#000000" d="m376.92838 260.44043l-1.484375 0l0 -0.8125l-6.234375 0l0 1.046875l-1.484375 0l0 -7.9531403l9.203125 0l0 7.7187653zm-11.125 -11.35939l13.203125 0l0 1.421875l-13.203125 0l0 3.328125q0 3.5000153 -2.234375 6.2500153l-1.25 -1.203125q2.0 -2.375 2.0 -5.5625153l0 -8.3125l1.484375 0.21875q6.609375 -0.21875 10.6875 -1.328125l1.109375 1.625q0.59375 0.671875 -0.8125 0.234375q-6.234375 0.8125 -10.984375 0.890625l0 2.4375zm9.640625 5.046875l-6.234375 0l0 4.0937653l6.234375 0l0 -4.0937653z" fill-rule="nonzero"/><path fill="#000000" d="m400.57202 245.75291l-2.0 0l0 14.92189l-1.484375 0l0 -16.10939l3.78125 0l0.21875 -0.453125l1.484375 1.109375l-0.359375 0.375l-1.640625 4.75q2.234375 3.5625 1.703125 5.7187653q-0.296875 1.328125 -1.546875 1.328125l-1.1875 0l-0.234375 -1.6250153l0.828125 0q0.8125 0 0.734375 -0.75q-0.140625 -2.890625 -1.625 -4.75l1.328125 -4.515625zm0.59375 13.35939q4.609375 -0.671875 4.234375 -5.5781403l-2.75 0l0 -1.40625l11.140625 0l0 1.40625l-3.71875 0l0 4.9843903q0 0.359375 0.453125 0.359375l1.25 0q0.234375 0 0.296875 -0.296875l0.296875 -1.703125l1.484375 0.375l-0.296875 1.859375q-0.21875 1.1875 -1.25 1.1875l-2.375 0q-1.34375 0 -1.34375 -1.265625l0 -5.5000153l-1.703125 0q0.4375 6.1718903 -5.125 7.0625153l-0.59375 -1.484375zm10.3125 -8.687515l-6.75 0l0 -1.40625l6.75 0l0 1.40625zm-8.90625 -4.453125l4.53125 0l0 -2.296875l1.40625 0q0.59375 0.0625 0.078125 0.4375l0 1.859375l4.90625 0l0 3.859375l-1.484375 0l0 -2.671875l-7.953125 0l0 2.671875l-1.484375 0l0 -3.859375z" fill-rule="nonzero"/><path fill="#000000" fill-opacity="0.0" d="m341.90552 156.3084l99.68503 0l0 28.692917l-99.68503 0z" fill-rule="evenodd"/><path fill="#000000" d="m362.45963 180.18152q2.59375 -3.859375 3.265625 -8.390625l1.78125 0.453125q0.59375 0.21875 -0.078125 0.4375q-0.890625 4.453125 -3.328125 8.546875l-1.640625 -1.046875zm12.6875 -8.390625q2.671875 3.5625 4.09375 7.578125l-1.859375 0.8125q-1.34375 -4.15625 -3.640625 -7.640625l1.40625 -0.75zm-5.484375 10.765625q0.296875 0 0.296875 -0.296875l0 -13.5l1.625 0q0.75 0.140625 0.078125 0.59375l0 13.875q0 0.96875 -0.96875 0.96875l-2.078125 0l-0.59375 -1.640625l1.640625 0z" fill-rule="nonzero"/><path fill="#000000" d="m383.47525 170.18152q0 -1.015625 -0.0625 -1.890625l1.59375 0q-0.21875 1.015625 -0.21875 2.328125l0 1.390625q0.734375 0 1.671875 -0.078125l0 1.3125q-0.875 -0.078125 -1.671875 -0.078125l0 2.703125q0.359375 -0.4375 0.65625 -0.734375q1.09375 1.390625 1.96875 3.0q-0.734375 0.28125 -1.171875 0.640625q-0.71875 -1.453125 -1.453125 -2.546875l0 5.828125q0 1.3125 0.078125 2.84375l-1.453125 0q0.0625 -1.53125 0.0625 -2.84375l0 -4.65625q-0.4375 1.375 -1.59375 3.34375q-0.296875 -0.65625 -0.953125 -1.3125q0.953125 -1.234375 1.609375 -3.09375q0.65625 -1.859375 0.796875 -3.171875q-0.953125 0 -1.96875 0.078125l0 -1.3125q1.09375 0.078125 2.109375 0.078125l0 -1.828125zm8.015625 0.4375q-0.21875 2.328125 -0.578125 4.015625q-0.359375 1.671875 -0.734375 2.546875q1.09375 1.671875 2.34375 3.71875q-0.65625 0.359375 -1.25 0.9375q-0.5 -1.234375 -1.671875 -3.125q-0.515625 1.09375 -1.203125 2.21875q-0.6875 1.125 -1.640625 2.15625q-0.65625 -0.59375 -1.3125 -0.953125q1.171875 -0.953125 1.96875 -2.1875q0.796875 -1.234375 1.3125 -2.546875q-0.359375 -0.875 -2.046875 -3.203125q0.59375 -0.21875 1.03125 -0.65625q0.9375 1.15625 1.59375 2.328125q0.59375 -2.046875 0.734375 -4.078125l-1.609375 0q-1.015625 0 -1.75 0.0625l0 -1.3125q0.65625 0.078125 1.75 0.078125l3.0625 0zm3.5 1.453125q-0.078125 -2.6875 -0.078125 -3.78125l1.46875 0q-0.078125 1.09375 -0.078125 3.78125q0.734375 0 1.609375 -0.140625l0 1.390625q-0.953125 -0.078125 -1.609375 -0.078125l0 10.28125q-0.078125 0.71875 -0.59375 1.046875q-0.5 0.328125 -1.8125 0.484375q-0.140625 -0.8125 -0.65625 -1.609375q1.09375 0.078125 1.453125 -0.03125q0.375 -0.109375 0.296875 -0.984375l0 -9.1875q-2.109375 0 -3.125 0.078125l0 -1.3125q0.9375 0.0625 3.125 0.0625zm-2.109375 2.921875q1.015625 2.109375 1.8125 3.78125q-0.9375 0.4375 -1.234375 0.734375q-0.71875 -2.03125 -1.8125 -3.859375q0.875 -0.515625 1.234375 -0.65625z" fill-rule="nonzero"/><path fill="#000000" d="m416.30338 181.44714q-2.453125 -2.296875 -3.5625 -4.671875l0 7.9375l-1.484375 0l0 -7.796875q-1.046875 2.296875 -3.5625 4.828125l-1.1875 -1.34375q3.859375 -3.703125 4.75 -7.34375l-2.828125 0l0 -1.40625l2.828125 0l0 -3.640625l1.40625 0q0.59375 0.078125 0.078125 0.453125l0 3.1875l3.625 0l0 1.40625l-3.625 0q1.1875 3.9375 4.59375 6.75l-1.03125 1.640625zm-9.203125 -2.671875q-0.75 -0.8125 -2.078125 -1.78125l0 7.796875l-1.484375 0l0 -7.5q-0.75 2.15625 -2.53125 4.0l-1.328125 -1.1875q2.96875 -3.109375 3.859375 -7.046875l-3.125 0l0 -1.40625l3.125 0l0 -3.640625l1.40625 0q0.59375 0.078125 0.078125 0.453125l0 3.1875l2.734375 0l0 1.40625l-2.734375 0l0 2.234375q1.921875 0.8125 3.03125 1.84375l-0.953125 1.640625z" fill-rule="nonzero"/><path fill="#000000" fill-opacity="0.0" d="m423.21783 59.52231l99.68506 0l0 28.692917l-99.68506 0z" fill-rule="evenodd"/><path fill="#000000" d="m443.77194 83.39543q2.59375 -3.859375 3.265625 -8.390625l1.78125 0.453125q0.59375 0.21875 -0.078125 0.4375q-0.890625 4.453125 -3.328125 8.546875l-1.640625 -1.046875zm12.6875 -8.390625q2.671875 3.5625 4.09375 7.578125l-1.859375 0.8125q-1.34375 -4.15625 -3.640625 -7.640625l1.40625 -0.75zm-5.484375 10.765625q0.296875 0 0.296875 -0.296875l0 -13.5l1.625 0q0.75 0.140625 0.078125 0.59375l0 13.875q0 0.96875 -0.96875 0.96875l-2.078125 0l-0.59375 -1.640625l1.640625 0z" fill-rule="nonzero"/><path fill="#000000" d="m481.29062 74.70793q-1.03125 -1.1875 -2.078125 -1.921875l1.046875 -1.34375q1.40625 0.890625 2.21875 2.015625l-1.1875 1.25zm-1.5625 1.34375q1.71875 1.1875 2.375 2.0l-1.03125 1.484375q-0.75 -0.890625 -2.234375 -2.0l0.890625 -1.484375zm0.375 11.5q0.15625 0.75 -0.4375 0.296875l-1.421875 -1.25q1.34375 -1.9375 2.90625 -5.578125l1.1875 0.890625q-1.265625 3.640625 -2.234375 5.640625zm7.34375 -9.5q0.453125 0.296875 1.046875 0.75l2.75 -2.609375l0.953125 0.828125q0.53125 0.515625 -0.140625 0.4375l-3.34375 2.671875l3.484375 -0.21875q-0.4375 -0.453125 -1.03125 -0.890625l0.96875 -0.75q1.40625 0.828125 2.671875 2.53125l-1.125 0.8125q-0.296875 -0.4375 -0.515625 -0.59375l-3.484375 0.21875l-0.21875 1.5625l5.34375 0l0 1.1875l-5.046875 0q1.40625 1.9375 5.5625 2.53125l-0.515625 1.484375q-4.234375 -0.59375 -6.015625 -3.265625q-1.5625 2.890625 -6.234375 3.34375l-0.453125 -1.421875q4.453125 -0.375 5.578125 -2.671875l-4.6875 0l0 -1.1875l4.984375 0l0.21875 -1.484375l-4.15625 0.296875q-0.296875 0.515625 -0.453125 0l-0.21875 -1.328125l3.484375 -0.078125l0.53125 -0.453125q-1.1875 -0.890625 -2.75 -1.78125l0.8125 -1.1875q0.515625 0.234375 0.96875 0.59375l1.625 -1.78125l-0.296875 0.078125q-0.21875 -0.8125 -0.734375 -1.78125l1.625 -0.59375q0.53125 0.890625 0.890625 1.859375l-1.25 0.375l0.953125 0.515625q0.53125 0.375 -0.140625 0.4375l-1.640625 1.5625zm-2.0 -5.9375q4.15625 -0.4375 7.5 -1.265625l0.96875 1.34375q0.296875 0.4375 -0.453125 0.21875q-4.296875 0.59375 -8.09375 0.8125q-0.4375 1.484375 -1.484375 3.421875l-1.25 -0.96875q1.1875 -1.78125 1.78125 -4.0l1.03125 0.4375zm6.90625 0.890625q1.1875 1.109375 1.921875 2.375l-1.546875 0.96875q-0.59375 -1.265625 -1.71875 -2.375l1.34375 -0.96875z" fill-rule="nonzero"/><path fill="#000000" fill-opacity="0.0" d="m585.83203 59.52231l99.68506 0l0 28.692917l-99.68506 0z" fill-rule="evenodd"/><path fill="#000000" d="m619.83923 71.50481q-0.0625 1.375 -0.0625 2.6875l0 4.53125q1.53125 0 3.34375 -0.078125l0 1.234375q-1.75 -0.0625 -2.984375 -0.0625l-1.96875 0l3.203125 2.390625q-0.875 0.375 -1.53125 0.8125q-0.5 -0.4375 -1.015625 -0.953125q-2.46875 0.21875 -5.171875 0.375q-2.703125 0.140625 -4.734375 0.578125l-0.578125 -1.3125q0.9375 -0.140625 1.484375 -0.46875q0.546875 -0.328125 1.640625 -1.421875l-2.90625 0q-1.3125 0 -2.625 0.0625l0 -1.234375q1.671875 0.078125 3.125 0.078125l0 -4.53125q-0.0625 -1.3125 -0.0625 -2.6875l10.84375 0zm-7.640625 12.3125q-0.078125 0.953125 -0.078125 1.53125q0 0.578125 0.03125 0.984375q0.046875 0.40625 0.765625 0.40625l3.578125 0q0.65625 0 0.875 -0.21875q0.21875 -0.21875 0.296875 -1.25q0.875 0.375 1.53125 0.59375q-0.65625 1.671875 -0.875 1.890625q-0.21875 0.21875 -1.3125 0.21875l-5.109375 0q-1.09375 0 -1.25 -0.546875q-0.140625 -0.546875 -0.109375 -1.671875q0.046875 -1.140625 -0.03125 -1.9375l1.6875 0zm6.265625 -5.09375l0 -1.3125l-8.09375 0l0 1.3125l8.09375 0zm0 -2.5625l0 -1.234375l-8.09375 0l0 1.234375l8.09375 0zm0 -2.328125l0 -1.171875l-8.09375 0l0 1.171875l8.09375 0zm-7.078125 7.65625q2.625 0 6.34375 -0.359375q-0.5 -0.375 -0.9375 -0.65625q0.4375 -0.375 1.09375 -0.65625l-4.53125 0q-0.65625 0.578125 -1.96875 1.671875zm8.890625 2.1875q1.96875 2.03125 2.703125 2.984375q-0.796875 0.296875 -1.53125 0.734375q-0.359375 -0.734375 -2.25 -3.0625q0.421875 -0.375 1.078125 -0.65625zm-11.0 0.5q-0.359375 0.375 -1.59375 3.796875q-0.8125 -0.359375 -1.53125 -0.578125q1.015625 -1.609375 1.671875 -3.578125q0.515625 0.140625 1.453125 0.359375zm5.984375 -1.15625q0.71875 1.453125 1.09375 2.25q-0.734375 0.21875 -1.390625 0.515625q-0.21875 -0.796875 -0.875 -2.265625q0.578125 -0.28125 1.171875 -0.5z" fill-rule="nonzero"/><path fill="#000000" d="m642.1548 75.67668l14.328125 0l0 1.1875l-12.84375 0l0 4.75q0 4.609375 -2.0 6.53125l-1.265625 -1.1875q1.78125 -1.625 1.78125 -5.640625l0 -5.640625zm13.359375 9.28125l-4.828125 0l0 1.703125l6.390625 0l0 1.1875l-13.734375 0l0 -1.1875l5.859375 0l0 -1.703125l-4.296875 0l0 -1.1875l4.296875 0l0 -1.109375l1.40625 0q0.59375 0.0625 0.078125 0.4375l0 0.671875l4.828125 0l0 1.1875zm-4.828125 -3.9375l5.859375 0l0 1.1875l-12.234375 0l0 -1.1875l4.890625 0l0 -1.40625l-4.078125 0l0 -1.1875l4.078125 0l0 -1.109375l1.40625 0q0.59375 0.0625 0.078125 0.4375l0 0.671875l4.53125 0l0 1.1875l-4.53125 0l0 1.40625zm-7.046875 -9.28125q0.59375 0.078125 0.078125 0.453125l0 1.328125l4.453125 0l0 -2.59375l1.40625 0q0.59375 0.078125 0.078125 0.453125l0 2.140625l4.453125 0l0 -1.78125l1.40625 0q0.59375 0.078125 0.078125 0.453125l0 2.515625l-13.359375 0l0 -2.96875l1.40625 0z" fill-rule="nonzero"/><path fill="#000000" fill-opacity="0.0" d="m260.5958 59.52231l99.68506 0l0 28.692917l-99.68506 0z" fill-rule="evenodd"/><path fill="#000000" d="m284.86865 82.06731q-0.890625 2.59375 -2.078125 5.34375q0.21875 0.515625 -0.234375 0.4375l-1.40625 -1.1875q0.8125 -1.328125 2.453125 -5.484375l1.265625 0.890625zm-0.828125 -2.75q-1.109375 -0.890625 -2.671875 -1.703125l0.828125 -1.265625q1.40625 0.4375 2.734375 1.5625l-0.890625 1.40625zm8.90625 3.34375l0 -2.75l-2.515625 0l0 2.75l2.515625 0zm1.265625 2.0l-1.265625 0l0 -0.8125l-2.515625 0l0 1.1875l-1.265625 0l0 -6.3125l5.046875 0l0 5.9375zm0.8125 -7.796875l-6.75 0l0 -1.40625l6.75 0l0 1.40625zm2.15625 9.953125q0 1.03125 -0.96875 1.03125l-1.546875 0l-0.296875 -1.40625l1.03125 0q0.296875 0 0.296875 -0.296875l0 -12.765625l-8.09375 0l0 14.46875l-1.484375 0l0 -15.875l11.0625 0l0 14.84375zm-14.390625 -15.078125q1.484375 0.671875 2.59375 1.859375l-0.890625 1.34375q-0.96875 -1.046875 -2.53125 -1.859375l0.828125 -1.34375z" fill-rule="nonzero"/><path fill="#000000" d="m328.54358 85.03606l-9.28125 0l0 1.40625l-1.703125 0l0 -13.21875l12.6875 0l0 12.921875l-1.703125 0l0 -1.109375zm-9.28125 -10.171875l0 8.53125l9.28125 0l0 -8.53125l-9.28125 0z" fill-rule="nonzero"/><path fill="#000000" fill-opacity="0.0" d="m341.90552 307.91733l99.68503 0l0 28.692902l-99.68503 0z" fill-rule="evenodd"/><path fill="#000000" d="m362.91275 333.9467q4.671875 -1.5625 7.484375 -4.078125l-7.046875 0l0 -1.1875l8.609375 0q-1.859375 -0.96875 -4.234375 -1.78125l0.890625 -0.890625q1.265625 0.4375 2.53125 0.8125l2.296875 -1.34375l-8.234375 0l0 -1.1875l9.9375 0l0.296875 -0.296875l1.125 0.96875q0.140625 0.15625 -0.53125 0.296875l-3.625 2.15625l0.8125 0.4375l-0.671875 0.828125l5.046875 0l0.296875 -0.296875l1.265625 1.03125q0.140625 0.15625 -0.515625 0.375q-2.234375 2.0 -4.828125 3.265625l-0.8125 -1.1875q2.078125 -1.046875 3.265625 -2.0l-4.15625 0l0 5.421875q0 1.03125 -1.046875 1.03125l-1.625 0l-0.15625 -1.40625l1.265625 0q0.296875 0 0.296875 -0.296875l0 -3.421875q-3.046875 2.828125 -7.421875 4.453125l-0.515625 -1.703125zm5.9375 -14.40625q0.59375 0.078125 0.0625 0.453125l0 1.109375l3.796875 0l0 -1.5625l1.40625 0q0.59375 0.078125 0.078125 0.453125l0 1.109375l4.671875 0l0 1.40625l-4.671875 0l0 1.125l-1.484375 0l0 -1.125l-3.796875 0l0 1.125l-1.484375 0l0 -1.125l-4.59375 0l0 -1.40625l4.59375 0l0 -1.5625l1.421875 0zm17.65625 0l1.40625 0q0.59375 0.078125 0.078125 0.453125l0 1.1875l3.640625 0l0 -1.640625l1.40625 0q0.59375 0.078125 0.078125 0.453125l0 1.1875l4.59375 0l0 1.40625l-4.59375 0l0 1.640625l2.375 0l0 6.59375l-1.484375 0l0 -0.359375l-3.421875 0l0 1.40625l7.65625 0l0 1.40625l-7.65625 0l0 3.203125l-1.484375 0l0 -3.203125l-7.78125 0l0 -1.40625l7.78125 0l0 -1.40625l-3.5625 0l0 0.515625l-1.484375 0l0 -6.75l2.453125 0l0 -1.640625l-4.671875 0l0 -1.40625l4.671875 0l0 -1.640625zm5.125 3.046875l-3.640625 0l0 1.640625l3.640625 0l0 -1.640625zm-6.09375 2.828125l0 1.328125l8.46875 0l0 -1.328125l-8.46875 0zm8.46875 2.515625l-8.46875 0l0 1.34375l8.46875 0l0 -1.34375zm10.171875 0.671875l2.59375 0l0.890625 -1.9375l-4.15625 0l0 1.78125q0 5.046875 -2.078125 7.65625l-1.34375 -0.96875q1.9375 -2.234375 1.9375 -6.984375l0 -7.859375l13.578125 0l0 3.78125l-12.09375 0l0 1.1875l13.140625 0l0 1.40625l-3.859375 0q2.140625 1.484375 3.484375 2.90625l-1.265625 0.890625l-1.03125 -1.046875l-3.265625 0.21875l0 1.78125l4.59375 0l0 1.421875l-4.59375 0l0 1.78125l6.453125 0l0 1.40625l-14.171875 0l0 -1.40625l6.234375 0l0 -1.78125l-4.609375 0l0 -1.421875l4.609375 0l0 -1.625l-4.015625 0.140625q-0.140625 0.59375 -0.515625 0.078125l-0.515625 -1.40625zm9.9375 -5.71875l0 -1.40625l-10.609375 0l0 1.40625l10.609375 0zm-4.671875 3.78125l-1.265625 1.9375l4.671875 -0.15625l-1.25 -0.953125l0.890625 -0.828125l-3.046875 0z" fill-rule="nonzero"/><path fill="#000000" fill-opacity="0.0" d="m578.7305 257.27676l0 0c0 -4.337204 3.5159912 -7.853195 7.8531494 -7.853195l98.18341 0c2.0828247 0 4.0803223 0.8273926 5.5530396 2.3001404c1.4727783 1.4727631 2.300171 3.4702454 2.300171 5.553055l0 31.411743c0 4.3371887 -3.5159912 7.85318 -7.8532104 7.85318l-98.18341 0c-4.337158 0 -7.8531494 -3.5159912 -7.8531494 -7.85318z" fill-rule="evenodd"/><path stroke="#000000" stroke-width="1.0" stroke-linejoin="round" stroke-linecap="butt" d="m578.7305 257.27676l0 0c0 -4.337204 3.5159912 -7.853195 7.8531494 -7.853195l98.18341 0c2.0828247 0 4.0803223 0.8273926 5.5530396 2.3001404c1.4727783 1.4727631 2.300171 3.4702454 2.300171 5.553055l0 31.411743c0 4.3371887 -3.5159912 7.85318 -7.8532104 7.85318l-98.18341 0c-4.337158 0 -7.8531494 -3.5159912 -7.8531494 -7.85318z" fill-rule="evenodd"/><path fill="#000000" fill-opacity="0.0" d="m585.83203 249.42258l99.68506 0l0 28.692902l-99.68506 0z" fill-rule="evenodd"/><path fill="#000000" d="m616.10486 275.2957l-4.515625 2.3125l-0.53125 -1.34375l5.046875 -2.21875l0 -2.078125l1.1875 0q0.59375 0.0625 0.078125 0.4375l0 1.640625q2.375 0.953125 4.96875 2.515625l-0.734375 1.125q-2.078125 -1.5 -4.234375 -2.390625l0 1.265625q0 1.34375 -1.328125 1.34375l-0.890625 0l-0.234375 -1.1875l0.53125 0q0.65625 0 0.65625 -0.53125l0 -0.890625zm-2.375 -7.5625l0 -1.046875l-1.109375 0l-1.109375 0l0 -5.34375l10.015625 0l0 5.34375l-2.375 0l0 1.046875l2.59375 0l0 1.1875l-2.59375 0l0 1.109375l3.484375 0l0 1.1875l-3.40625 0q1.1875 1.40625 4.234375 2.53125l-0.453125 1.109375q-1.40625 -0.515625 -2.515625 -1.265625l-0.53125 1.046875l-1.03125 -0.671875l0.515625 -1.046875q-1.03125 -0.734375 -1.625 -1.703125l-2.53125 0q-0.375 0.671875 -1.40625 1.640625l0.671875 1.1875l-1.1875 0.59375l-0.53125 -0.96875q-1.40625 1.03125 -2.96875 1.5625l-0.515625 -1.1875q2.828125 -1.046875 4.453125 -2.828125l-3.9375 0l0 -1.1875l3.859375 0l0 -1.109375l-2.375 0l0 -1.1875l2.375 0zm6.53125 -4.3125l0 -0.890625l-7.484375 0l0 0.890625l7.484375 0zm-2.375 4.3125l0 -1.046875l-2.890625 0l0 1.046875l2.890625 0zm0 2.296875l0 -1.109375l-2.890625 0l0 1.109375l2.890625 0zm-8.15625 -5.859375q-1.046875 -0.8125 -2.53125 -1.5625l0.890625 -1.1875q1.34375 0.515625 2.53125 1.40625l-0.890625 1.34375zm-0.671875 4.53125q-1.109375 -0.828125 -2.671875 -1.5625l0.890625 -1.265625q1.484375 0.515625 2.671875 1.40625l-0.890625 1.421875zm-3.046875 8.015625q1.265625 -2.15625 2.234375 -6.09375l1.265625 0.59375q-0.890625 3.9375 -1.859375 5.71875q0.375 0.8125 -0.375 0.515625l-1.265625 -0.734375zm14.25 -11.21875l0 -0.890625l-7.484375 0l0 0.890625l7.484375 0z" fill-rule="nonzero"/><path fill="#000000" d="m652.13495 263.65506q0.515625 -1.34375 0.96875 -2.90625l1.625 0.453125q0.296875 0.296875 -0.21875 0.375q-0.453125 1.109375 -0.8125 2.078125l9.265625 0l0 1.40625l-9.859375 0q-1.1875 2.296875 -1.859375 3.046875l3.34375 0l0 -2.375l1.40625 0q0.59375 0.0625 0.078125 0.4375l0 1.9375l4.96875 0l0 7.1875q0 1.203125 -1.1875 1.203125l-1.40625 0l-0.234375 -1.421875l1.046875 0q0.296875 0 0.296875 -0.296875l0 -5.265625l-3.484375 0l0 8.46875l-1.484375 0l0 -8.46875l-3.34375 0l0 6.90625l-1.484375 0l0 -6.390625q-1.34375 1.40625 -2.828125 2.375l-1.03125 -1.40625q3.484375 -2.15625 5.5625 -5.9375l-4.890625 0l0 -1.40625l5.5625 0z" fill-rule="nonzero"/><path fill="#000000" fill-opacity="0.0" d="m578.8119 333.1009l0 0c0 -4.3371887 3.5159912 -7.85318 7.8531494 -7.85318l98.18341 0c2.0828247 0 4.0803223 0.8273926 5.5530396 2.3001404c1.4727783 1.4727783 2.300171 3.4702454 2.300171 5.5530396l0 31.411774c0 4.3371887 -3.5159912 7.85318 -7.8532104 7.85318l-98.18341 0c-4.337158 0 -7.8531494 -3.5159912 -7.8531494 -7.85318z" fill-rule="evenodd"/><path stroke="#000000" stroke-width="1.0" stroke-linejoin="round" stroke-linecap="butt" d="m578.8119 333.1009l0 0c0 -4.3371887 3.5159912 -7.85318 7.8531494 -7.85318l98.18341 0c2.0828247 0 4.0803223 0.8273926 5.5530396 2.3001404c1.4727783 1.4727783 2.300171 3.4702454 2.300171 5.5530396l0 31.411774c0 4.3371887 -3.5159912 7.85318 -7.8532104 7.85318l-98.18341 0c-4.337158 0 -7.8531494 -3.5159912 -7.8531494 -7.85318z" fill-rule="evenodd"/><path fill="#000000" fill-opacity="0.0" d="m635.7568 296.5548l0 28.692902" fill-rule="evenodd"/><path stroke="#000000" stroke-width="1.0" stroke-linejoin="round" stroke-linecap="butt" d="m635.7568 296.5548l0 28.692902" fill-rule="evenodd"/><path fill="#000000" fill-opacity="0.0" d="m585.9134 325.2467l99.68506 0l0 28.692932l-99.68506 0z" fill-rule="evenodd"/><path fill="#000000" d="m610.1081 348.30734q-0.671875 2.453125 -1.5625 4.3125l-1.625 -0.609375q1.109375 -2.21875 1.703125 -4.59375l1.703125 0.515625q0.296875 0.296875 -0.21875 0.375zm9.578125 2.0q0 2.90625 -1.71875 2.90625l-5.5625 0q-1.328125 0 -1.328125 -1.265625l0 -5.421875l1.40625 0q0.59375 0.078125 0.078125 0.4375l0 4.234375q0 0.59375 0.515625 0.59375l3.703125 0q0.96875 0 1.046875 -0.515625l0.21875 -1.34375l1.640625 0.375zm1.25 -6.453125l0 1.40625l-10.15625 0q-1.34375 0 -1.34375 -1.265625l0 -3.484375l-2.671875 0l0 -1.40625l7.125 0l0 -2.0l1.640625 0q0.734375 0.140625 0.0625 0.59375l0 1.40625l7.203125 0l0 1.40625l-11.875 0l0 2.75q0 0.59375 0.515625 0.59375l9.5 0zm-5.859375 2.15625q0.8125 1.03125 1.859375 2.8125l-1.40625 0.890625q-0.96875 -1.921875 -1.78125 -2.890625l1.328125 -0.8125zm5.046875 1.109375q1.9375 1.78125 3.125 4.078125l-1.5625 0.890625q-1.109375 -2.21875 -2.828125 -4.15625l1.265625 -0.8125z" fill-rule="nonzero"/><path fill="#000000" d="m637.90497 351.36984q0 0.875 0.4375 0.90625q0.4375 0.03125 0.953125 0.03125q0.578125 0 0.828125 -0.4375q0.265625 -0.4375 0.484375 -1.671875q0.71875 0.578125 1.59375 0.734375q-0.796875 2.03125 -1.421875 2.390625q-0.609375 0.375 -1.640625 0.375q-0.9375 0 -1.75 -0.109375q-0.796875 -0.109375 -0.859375 -1.5625l0 -8.75l-0.515625 0q-0.4375 4.015625 -1.03125 5.578125q-0.578125 1.5625 -1.3125 2.703125q-0.71875 1.125 -2.03125 2.5q-0.515625 -0.65625 -1.453125 -1.15625q1.8125 -1.3125 2.984375 -3.5625q1.171875 -2.265625 1.453125 -6.0625q-1.015625 0 -2.40625 0.078125l0 -1.3125q1.390625 0.0625 2.5625 0.0625q0 -2.984375 -0.21875 -4.875q0.9375 0.296875 1.671875 0.296875q-0.078125 1.234375 -0.140625 4.578125l2.984375 0q1.09375 0 2.109375 -0.0625l0 1.3125q-1.015625 -0.078125 -2.109375 -0.078125l-1.171875 0l0 8.09375zm-8.53125 -14.140625q-0.0625 1.453125 -0.0625 2.625l0 11.296875q0 1.453125 0.0625 2.625l-1.375 0q0.078125 -1.46875 0.078125 -2.625l0 -11.078125q0 -1.46875 -0.078125 -2.84375l1.375 0zm-2.171875 4.21875q-0.21875 2.484375 -0.65625 4.3125q-0.59375 -0.15625 -1.390625 -0.21875q0.578125 -1.90625 0.796875 -4.234375q0.59375 0.140625 1.25 0.140625zm11.28125 -3.421875q1.3125 1.53125 2.046875 2.40625q-0.65625 0.515625 -1.234375 0.953125q-0.875 -1.390625 -1.671875 -2.5625q0.4375 -0.359375 0.859375 -0.796875zm-6.484375 4.59375q-0.65625 0.359375 -1.15625 0.65625q-0.515625 -1.453125 -1.09375 -2.40625q0.5 -0.359375 1.09375 -0.65625q0.71875 1.453125 1.15625 2.40625z" fill-rule="nonzero"/><path fill="#000000" d="m647.3112 340.51047q-1.25 -1.03125 -2.671875 -1.859375l0.890625 -1.328125q1.484375 0.671875 2.671875 1.78125l-0.890625 1.40625zm-0.359375 4.671875q-1.1875 -1.03125 -2.671875 -1.84375l0.8125 -1.421875q1.484375 0.75 2.75 1.78125l-0.890625 1.484375zm0.59375 2.375q-1.1875 3.34375 -2.234375 5.578125q0.078125 0.734375 -0.375 0.375l-1.109375 -1.265625q1.34375 -2.078125 2.453125 -5.5l1.265625 0.8125zm4.453125 -7.046875l-2.15625 0l0 1.640625l2.15625 0l0 -1.640625zm3.40625 0l-2.15625 0l0 1.640625l2.15625 0l0 -1.640625zm0 -2.0l-2.15625 0l0 1.109375l2.15625 0l0 -1.109375zm3.421875 2.0l-2.15625 0l0 1.640625l2.15625 0l0 -1.640625zm1.25 -0.890625l0 3.421875l-11.5 0l0 -3.421875l3.421875 0l0 -1.109375l-3.71875 0l0 -1.1875l12.09375 0l0 1.1875l-3.703125 0l0 1.109375l3.40625 0zm-1.03125 4.3125l0 5.34375l-3.9375 0l0 1.109375l5.859375 0l0 1.1875l-5.859375 0l0 2.15625l-1.484375 0l0 -2.15625l-5.859375 0l0 -1.1875l5.859375 0l0 -1.109375l-2.0 0l-1.9375 0l0 -5.34375l9.359375 0zm-1.265625 1.1875l-6.828125 0l0 1.03125l6.828125 0l0 -1.03125zm-6.828125 2.96875l6.828125 0l0 -1.046875l-6.828125 0l0 1.046875z" fill-rule="nonzero"/><path fill="#000000" fill-opacity="0.0" d="m514.4707 433.54053l0 0c0 -4.3371887 3.5159912 -7.85318 7.8531494 -7.85318l98.18341 0c2.0828247 0 4.080261 0.8273926 5.5530396 2.3001404c1.4727783 1.4727783 2.3001099 3.4702454 2.3001099 5.5530396l0 31.411774c0 4.3371887 -3.5159302 7.8531494 -7.8531494 7.8531494l-98.18341 0c-4.337158 0 -7.8531494 -3.5159607 -7.8531494 -7.8531494z" fill-rule="evenodd"/><path stroke="#000000" stroke-width="1.0" stroke-linejoin="round" stroke-linecap="butt" d="m514.4707 433.54053l0 0c0 -4.3371887 3.5159912 -7.85318 7.8531494 -7.85318l98.18341 0c2.0828247 0 4.080261 0.8273926 5.5530396 2.3001404c1.4727783 1.4727783 2.3001099 3.4702454 2.3001099 5.5530396l0 31.411774c0 4.3371887 -3.5159302 7.8531494 -7.8531494 7.8531494l-98.18341 0c-4.337158 0 -7.8531494 -3.5159607 -7.8531494 -7.8531494z" fill-rule="evenodd"/><path fill="#000000" fill-opacity="0.0" d="m521.5722 425.68634l99.685 0l0 28.692932l-99.685 0z" fill-rule="evenodd"/><path fill="#000000" d="m557.78253 440.9501q0.75 0.15625 0.078125 0.59375l0 11.875l-1.703125 0l0 -1.1875l-11.359375 0l0 1.484375l-1.703125 0l0 -12.765625l1.625 0q0.75 0.15625 0.078125 0.59375l0 9.0625l4.75 0l0 -12.765625l1.640625 0q0.734375 0.140625 0.0625 0.59375l0 12.171875l4.90625 0l0 -9.65625l1.625 0z" fill-rule="nonzero"/><path fill="#000000" d="m590.5512 451.93448l0 -3.34375l-3.703125 0l0 3.34375l3.703125 0zm1.484375 2.015625l-1.484375 0l0 -0.828125l-3.703125 0l0 1.046875l-1.484375 0l0 -6.765625l6.671875 0l0 6.546875zm-5.265625 -13.8125q0.375 1.03125 1.859375 2.671875q1.328125 -1.78125 1.703125 -2.671875l-3.5625 0zm1.859375 4.75q-2.59375 2.375 -4.828125 3.1875l-0.671875 -1.484375q2.078125 -0.671875 4.53125 -2.8125q-0.59375 -0.59375 -1.5625 -2.15625q-0.734375 1.703125 -1.484375 2.453125l-1.109375 -1.125q1.78125 -2.375 2.75 -5.9375l1.5625 0.453125q0.296875 0.296875 -0.234375 0.375l-0.359375 0.890625l3.78125 0l0.21875 -0.375l1.1875 0.96875q0.296875 0.21875 -0.296875 0.4375q-1.03125 2.375 -2.453125 4.015625q2.53125 1.921875 4.3125 2.515625l-0.59375 1.640625q-1.78125 -0.59375 -4.75 -3.046875zm-5.421875 -6.6875l0 5.5l-1.859375 0l0 2.75l1.71875 0l0 1.40625l-1.71875 0l0 3.40625l2.609375 -0.8125l0.296875 1.34375l-6.828125 1.921875q-0.078125 0.59375 -0.375 0.296875l-0.59375 -1.625l0.890625 -0.15625l0 -6.90625l1.40625 0q0.59375 0.078125 0.078125 0.453125l0 6.078125l1.03125 -0.21875l0 -7.9375l-1.328125 0l-1.265625 0l0 -5.5l5.9375 0zm-1.484375 4.3125l0 -3.125l-2.96875 0l0 3.125l2.96875 0z" fill-rule="nonzero"/><path fill="#000000" fill-opacity="0.0" d="m435.76202 529.9067l0 0c0 -4.337219 3.5159912 -7.8532104 7.85318 -7.8532104l98.18338 0c2.0828247 0 4.0803223 0.8273926 5.5530396 2.300171c1.4727783 1.4727783 2.300171 3.4702148 2.300171 5.5530396l0 31.411743c0 4.337219 -3.5159912 7.8532104 -7.8532104 7.8532104l-98.18338 0c-4.3371887 0 -7.85318 -3.5159912 -7.85318 -7.8532104z" fill-rule="evenodd"/><path stroke="#000000" stroke-width="1.0" stroke-linejoin="round" stroke-linecap="butt" d="m435.76202 529.9067l0 0c0 -4.337219 3.5159912 -7.8532104 7.85318 -7.8532104l98.18338 0c2.0828247 0 4.0803223 0.8273926 5.5530396 2.300171c1.4727783 1.4727783 2.300171 3.4702148 2.300171 5.5530396l0 31.411743c0 4.337219 -3.5159912 7.8532104 -7.8532104 7.8532104l-98.18338 0c-4.3371887 0 -7.85318 -3.5159912 -7.85318 -7.8532104z" fill-rule="evenodd"/><path fill="#000000" fill-opacity="0.0" d="m449.96588 522.0525l99.68506 0l0 28.692932l-99.68506 0z" fill-rule="evenodd"/><path fill="#000000" d="m486.17624 537.3162q0.75 0.15625 0.078125 0.59375l0 11.875l-1.703125 0l0 -1.1875l-11.359375 0l0 1.484375l-1.703125 0l0 -12.765625l1.625 0q0.75 0.15625 0.078125 0.59375l0 9.0625l4.75 0l0 -12.765625l1.640625 0q0.734375 0.140625 0.0625 0.59375l0 12.171875l4.90625 0l0 -9.65625l1.625 0z" fill-rule="nonzero"/><path fill="#000000" d="m518.9449 548.3006l0 -3.34375l-3.703125 0l0 3.34375l3.703125 0zm1.484375 2.015625l-1.484375 0l0 -0.828125l-3.703125 0l0 1.046875l-1.484375 0l0 -6.765625l6.671875 0l0 6.546875zm-5.265625 -13.8125q0.375 1.03125 1.859375 2.671875q1.328125 -1.78125 1.703125 -2.671875l-3.5625 0zm1.859375 4.75q-2.59375 2.375 -4.828125 3.1875l-0.671875 -1.484375q2.078125 -0.671875 4.53125 -2.8125q-0.59375 -0.59375 -1.5625 -2.15625q-0.734375 1.703125 -1.484375 2.453125l-1.109375 -1.125q1.78125 -2.375 2.75 -5.9375l1.5625 0.453125q0.296875 0.296875 -0.234375 0.375l-0.359375 0.890625l3.78125 0l0.21875 -0.375l1.1875 0.96875q0.296875 0.21875 -0.296875 0.4375q-1.03125 2.375 -2.453125 4.015625q2.53125 1.921875 4.3125 2.515625l-0.59375 1.640625q-1.78125 -0.59375 -4.75 -3.046875zm-5.421875 -6.6875l0 5.5l-1.859375 0l0 2.75l1.71875 0l0 1.40625l-1.71875 0l0 3.40625l2.609375 -0.8125l0.296875 1.34375l-6.828125 1.921875q-0.078125 0.59375 -0.375 0.296875l-0.59375 -1.625l0.890625 -0.15625l0 -6.90625l1.40625 0q0.59375 0.078125 0.078125 0.453125l0 6.078125l1.03125 -0.21875l0 -7.9375l-1.328125 0l-1.265625 0l0 -5.5l5.9375 0zm-1.484375 4.3125l0 -3.125l-2.96875 0l0 3.125l2.96875 0z" fill-rule="nonzero"/><path fill="#000000" fill-opacity="0.0" d="m635.7568 372.36584l-64.346436 53.322815" fill-rule="evenodd"/><path stroke="#000000" stroke-width="1.0" stroke-linejoin="round" stroke-linecap="butt" d="m635.7568 372.36584l-64.346436 53.322815" fill-rule="evenodd"/><path fill="#000000" fill-opacity="0.0" d="m578.80054 472.09973l-78.99213 49.95276" fill-rule="evenodd"/><path stroke="#000000" stroke-width="1.0" stroke-linejoin="round" stroke-linecap="butt" d="m578.80054 472.09973l-78.99213 49.95276" fill-rule="evenodd"/><path fill="#cfe2f3" d="m572.95276 589.01184l0 0c0 3.0505981 -2.4730225 5.5236206 -5.5236206 5.5236206l0 -5.5236206c0 1.5252686 -1.2365112 2.7617798 -2.7618408 2.7617798c-1.5252686 0 -2.7617798 -1.2365112 -2.7617798 -2.7617798l0 5.5236206l-146.0433 0l0 0c-3.0506287 0 -5.5236206 2.4729614 -5.5236206 5.5236206l0 66.28345c0 3.0505981 2.472992 5.5236206 5.5236206 5.5236206c3.0505981 0 5.5236206 -2.4730225 5.5236206 -5.5236206l0 -5.5236206l146.0433 0c3.0505981 0 5.5236206 -2.4730225 5.5236206 -5.5236206zm-157.09055 16.570862l0 0c3.0505981 0 5.5236206 -2.4730225 5.5236206 -5.5236206l0 0c0 -1.5253296 -1.2365112 -2.7618408 -2.7618103 -2.7618408c-1.5252991 0 -2.7618103 1.2365112 -2.7618103 2.7618408z" fill-rule="evenodd"/><path fill="#a5b4c2" d="m415.8622 605.5827l0 0c3.0505981 0 5.5236206 -2.4730225 5.5236206 -5.5236206l0 0c0 -1.5253296 -1.2365112 -2.7618408 -2.7618103 -2.7618408c-1.5252991 0 -2.7618103 1.2365112 -2.7618103 2.7618408zm151.56693 -11.047241c3.0505981 0 5.5236206 -2.4730225 5.5236206 -5.5236206c0 -3.0506592 -2.4730225 -5.5236816 -5.5236206 -5.5236816c-3.0505981 0 -5.5236206 2.4730225 -5.5236206 5.5236816l0 0c0 1.5252686 1.2365112 2.7617798 2.7617798 2.7617798c1.5253296 0 2.7618408 -1.2365112 2.7618408 -2.7617798z" fill-rule="evenodd"/><path fill="#000000" fill-opacity="0.0" d="m410.3386 600.0591c0 -3.0506592 2.472992 -5.5236206 5.5236206 -5.5236206l146.0433 0l0 -5.5236206l0 0c0 -3.0506592 2.4730225 -5.5236816 5.5236206 -5.5236816c3.0505981 0 5.5236206 2.4730225 5.5236206 5.5236816l0 66.28345c0 3.0505981 -2.4730225 5.5236206 -5.5236206 5.5236206l-146.0433 0l0 5.5236206c0 3.0505981 -2.4730225 5.5236206 -5.5236206 5.5236206c-3.0506287 0 -5.5236206 -2.4730225 -5.5236206 -5.5236206zm151.56693 -5.5236206l5.5236206 0c3.0505981 0 5.5236206 -2.4730225 5.5236206 -5.5236206m-5.5236206 5.5236206l0 -5.5236206c0 1.5252686 -1.2365112 2.7617798 -2.7618408 2.7617798c-1.5252686 0 -2.7617798 -1.2365112 -2.7617798 -2.7617798m-146.0433 16.570862l0 -5.5236206l0 0c0 -1.5253296 1.2365112 -2.7618408 2.7618103 -2.7618408c1.5252991 0 2.7618103 1.2365112 2.7618103 2.7618408c0 3.0505981 -2.4730225 5.5236206 -5.5236206 5.5236206c-3.0506287 0 -5.5236206 -2.4730225 -5.5236206 -5.5236206m11.047241 0l0 60.759827" fill-rule="evenodd"/><path stroke="#000000" stroke-width="1.0" stroke-linejoin="round" stroke-linecap="butt" d="m410.3386 600.0591c0 -3.0506592 2.472992 -5.5236206 5.5236206 -5.5236206l146.0433 0l0 -5.5236206l0 0c0 -3.0506592 2.4730225 -5.5236816 5.5236206 -5.5236816c3.0505981 0 5.5236206 2.4730225 5.5236206 5.5236816l0 66.28345c0 3.0505981 -2.4730225 5.5236206 -5.5236206 5.5236206l-146.0433 0l0 5.5236206c0 3.0505981 -2.4730225 5.5236206 -5.5236206 5.5236206c-3.0506287 0 -5.5236206 -2.4730225 -5.5236206 -5.5236206zm151.56693 -5.5236206l5.5236206 0c3.0505981 0 5.5236206 -2.4730225 5.5236206 -5.5236206m-5.5236206 5.5236206l0 -5.5236206c0 1.5252686 -1.2365112 2.7617798 -2.7618408 2.7617798c-1.5252686 0 -2.7617798 -1.2365112 -2.7617798 -2.7617798m-146.0433 16.570862l0 -5.5236206l0 0c0 -1.5253296 1.2365112 -2.7618408 2.7618103 -2.7618408c1.5252991 0 2.7618103 1.2365112 2.7618103 2.7618408c0 3.0505981 -2.4730225 5.5236206 -5.5236206 5.5236206c-3.0506287 0 -5.5236206 -2.4730225 -5.5236206 -5.5236206m11.047241 0l0 60.759827" fill-rule="evenodd"/><path fill="#000000" fill-opacity="0.0" d="m435.76117 606.0866l113.88977 0l0 38.078735l-113.88977 0z" fill-rule="evenodd"/><path fill="#000000" d="m459.94867 628.42346q1.4375 -2.984375 2.421875 -6.15625l2.671875 0.921875q2.09375 1.046875 0.015625 1.46875q-0.671875 2.09375 -2.125 4.984375l-2.984375 -1.21875zm-4.125 3.703125l-9.1875 0l0 -2.78125l9.1875 0l0 -7.34375l-8.0625 0l0 -2.78125l18.90625 0l0 2.78125l-7.96875 0l0 7.34375l9.28125 0l0 2.78125l-9.28125 0l0 7.59375l-2.875 0l0 -7.59375zm-4.5 -9.765625q2.265625 3.046875 2.96875 5.609375l-2.9375 1.34375q-1.203125 -3.359375 -2.8125 -5.5625l2.78125 -1.390625z" fill-rule="nonzero"/><path fill="#000000" d="m488.49164 623.47034q1.75 0.875 0.09375 1.34375q-0.296875 0.734375 -0.78125 1.71875l10.9375 0l0 2.78125l-4.6875 0q-0.59375 2.71875 -2.21875 4.734375q2.53125 1.078125 5.84375 3.609375l-2.390625 2.515625q-3.21875 -2.59375 -5.609375 -3.734375q-3.515625 2.890625 -11.359375 3.703125l-0.546875 -3.28125q6.25 -0.203125 8.8125 -1.859375q-1.5625 -0.65625 -2.953125 -1.171875q-0.171875 0.25 -0.953125 1.1875l-2.390625 -1.6875q1.59375 -2.171875 2.71875 -4.015625l-5.890625 0l0 -2.78125l7.3125 0q0.96875 -2.03125 1.59375 -3.875l2.46875 0.8125zm0.5 9.34375q1.578125 -1.890625 1.953125 -3.5l-4.484375 0q-0.4375 0.875 -1.296875 2.109375q1.328125 0.390625 3.828125 1.390625zm9.1875 -6.875l-2.875 0l0 -2.90625l-14.75 0l0 2.90625l-2.875 0l0 -5.6875l8.71875 0l0 -2.71875l2.3125 0q2.046875 0.25 0.5625 1.3125l0 1.40625l8.90625 0l0 5.6875z" fill-rule="nonzero"/><path fill="#000000" d="m520.67523 619.78284q-0.046875 -0.390625 -0.1875 -1.96875l3.25 0q-0.140625 1.546875 -0.140625 1.96875l1.75 0q1.484375 0 3.78125 -0.125l0 2.5625q-2.296875 -0.125 -3.78125 -0.125l-1.75 0l0 0.78125l4.265625 0q-0.140625 1.640625 -0.140625 3.3125l0 7.28125q0.421875 0 2.34375 -0.125l0 2.5625q-1.828125 -0.125 -3.40625 -0.125l-8.25 0q-1.390625 0 -2.9375 0.140625l0 -2.59375q1.546875 0.140625 1.78125 0.140625l0 -7.1875q0 -1.765625 -0.140625 -3.40625l3.609375 0l0 -0.78125l-1.375 0q-1.859375 0 -3.78125 0.125l0 -2.5625q1.921875 0.125 3.78125 0.125l1.328125 0zm-5.234375 8.15625q-1.921875 -0.125 -2.34375 -0.125l0 1.71875q0.703125 0 3.1875 -0.125l0 2.5625q-2.484375 -0.125 -3.1875 -0.125l0 2.96875q0.453125 -0.359375 1.625 -1.859375q0.578125 1.53125 1.359375 2.71875q-1.296875 1.03125 -2.359375 1.859375q-1.0625 0.828125 -2.25 2.15625l-2.03125 -2.3125q0.828125 -0.671875 0.96875 -1.390625l0 -4.140625q-0.703125 0 -2.71875 0.125l0 -2.5625q2.015625 0.125 2.71875 0.125l0 -1.71875l-1.3125 0l0.078125 -0.5l-0.46875 0.796875l-2.046875 -2.3125q1.6875 -1.6875 2.671875 -3.71875q1.0 -2.046875 1.375 -4.359375q2.0625 0.78125 3.46875 1.25q-1.15625 0.953125 -1.796875 2.6875q0.859375 0 3.34375 -0.125l0 2.640625q-2.671875 -0.109375 -4.3125 -0.109375q-0.53125 1.0625 -0.75 1.40625q0.359375 0.03125 1.5625 0.03125q1.296875 0 3.21875 -0.125l0 2.5625zm9.59375 5.53125l0 -0.59375l-5.1875 0l0 0.59375l5.1875 0zm-3.3125 3.5q-1.640625 0.890625 -3.046875 1.875q-1.40625 0.984375 -2.78125 1.734375q-1.1875 -1.078125 -2.28125 -1.953125q2.203125 -0.96875 3.296875 -1.734375q1.109375 -0.78125 2.421875 -1.875q1.078125 0.8125 2.390625 1.953125zm2.9375 -1.9375q1.125 0.75 2.328125 1.359375q1.21875 0.609375 3.234375 1.8125q-1.203125 1.0625 -2.03125 2.421875q-1.453125 -1.1875 -2.515625 -1.890625q-1.0625 -0.6875 -2.84375 -1.703125q0.828125 -1.15625 1.828125 -2.0zm0.375 -4.46875l0 -0.3125l-5.1875 0l0 0.3125l5.1875 0zm0 -5.0625l0 -0.3125l-5.1875 0l0 0.3125l5.1875 0zm0 2.53125l0 -0.21875l-5.1875 0l0 0.21875l5.1875 0z" fill-rule="nonzero"/><path fill="#cfe2f3" d="m62.49609 54.52231l41.143993 -3.2424927E-4l20.572517 -19.34613l20.57251 19.34613l41.143997 3.2424927E-4l-20.571472 19.346458l20.571472 19.346458l-41.143997 3.2043457E-4l-20.57251 19.34613l-20.572517 -19.34613l-41.143993 -3.2043457E-4l20.571476 -19.346458z" fill-rule="evenodd"/><path stroke="#000000" stroke-width="1.0" stroke-linejoin="round" stroke-linecap="butt" d="m62.49609 54.52231l41.143993 -3.2424927E-4l20.572517 -19.34613l20.57251 19.34613l41.143997 3.2424927E-4l-20.571472 19.346458l20.571472 19.346458l-41.143997 3.2043457E-4l-20.57251 19.34613l-20.572517 -19.34613l-41.143993 -3.2043457E-4l20.571476 -19.346458z" fill-rule="evenodd"/><path fill="#000000" fill-opacity="0.0" d="m74.37008 54.341206l99.685036 0l0 38.07874l-99.685036 0z" fill-rule="evenodd"/><path fill="#000000" d="m97.62008 74.65183l-7.265625 0l0 5.046875l7.265625 0l0 -5.046875zm0 6.453125l-7.265625 0l0 1.203125l-1.484375 0l0 -7.140625q-1.1875 1.484375 -3.265625 2.828125l-0.96875 -1.5625q4.53125 -2.59375 5.484375 -7.421875l-4.890625 0l0 -1.625l15.65625 0l0 1.625l-9.046875 0q-0.296875 2.078125 -1.484375 4.234375l8.75 0l0 9.0625l-1.484375 0l0 -1.203125zm5.859375 0q2.078125 -2.375 3.34375 -5.109375l1.046875 1.25q-1.125 2.234375 -2.75 4.765625q0.078125 0.734375 -0.453125 0.296875l-1.1875 -1.203125zm1.640625 -14.390625q1.625 0.734375 2.8125 1.859375l-0.953125 1.546875q-1.34375 -1.25 -2.828125 -2.0l0.96875 -1.40625zm-0.296875 4.453125q1.5625 0.671875 2.96875 1.859375l-1.109375 1.625q-1.484375 -1.328125 -2.96875 -2.078125l1.109375 -1.40625zm11.28125 10.765625q-1.265625 0 -1.265625 -1.265625l0 -8.171875l-2.15625 0l0 4.09375q0 4.21875 -4.296875 6.015625l-0.671875 -1.5625q3.34375 -1.34375 3.34375 -4.53125l0 -5.421875l5.421875 0l0 8.828125q0 0.59375 0.515625 0.59375l0.890625 0q0.734375 0 1.03125 -1.921875l1.484375 0.734375q-0.359375 2.609375 -1.84375 2.609375l-2.453125 0zm1.5625 -10.625l0 -2.96875l-7.65625 0l0 3.125l-1.625 0l0 -4.53125l10.984375 0l0 4.375l-1.703125 0zm7.859375 -1.78125q-1.03125 -1.1875 -2.078125 -1.921875l1.046875 -1.34375q1.40625 0.890625 2.21875 2.015625l-1.1875 1.25zm-1.5625 1.34375q1.71875 1.1875 2.375 2.0l-1.03125 1.484375q-0.75 -0.890625 -2.234375 -2.0l0.890625 -1.484375zm0.375 11.5q0.15625 0.75 -0.4375 0.296875l-1.421875 -1.25q1.34375 -1.9375 2.90625 -5.578125l1.1875 0.890625q-1.265625 3.640625 -2.234375 5.640625zm7.3437424 -9.5q0.453125 0.296875 1.046875 0.75l2.75 -2.609375l0.953125 0.828125q0.53125 0.515625 -0.140625 0.4375l-3.34375 2.671875l3.484375 -0.21875q-0.4375 -0.453125 -1.03125 -0.890625l0.96875 -0.75q1.40625 0.828125 2.671875 2.53125l-1.125 0.8125q-0.296875 -0.4375 -0.515625 -0.59375l-3.484375 0.21875l-0.21875 1.5625l5.34375 0l0 1.1875l-5.046875 0q1.40625 1.9375 5.5625 2.53125l-0.515625 1.484375q-4.234375 -0.59375 -6.015625 -3.265625q-1.5625 2.890625 -6.2343674 3.34375l-0.453125 -1.421875q4.4531174 -0.375 5.5781174 -2.671875l-4.6874924 0l0 -1.1875l4.9843674 0l0.21875 -1.484375l-4.15625 0.296875q-0.29686737 0.515625 -0.45311737 0l-0.21875 -1.328125l3.4843674 -0.078125l0.53125 -0.453125q-1.1875 -0.890625 -2.75 -1.78125l0.8125 -1.1875q0.515625 0.234375 0.96875 0.59375l1.625 -1.78125l-0.296875 0.078125q-0.21875 -0.8125 -0.734375 -1.78125l1.625 -0.59375q0.53125 0.890625 0.890625 1.859375l-1.25 0.375l0.953125 0.515625q0.53125 0.375 -0.140625 0.4375l-1.640625 1.5625zm-2.0 -5.9375q4.15625 -0.4375 7.5 -1.265625l0.96875 1.34375q0.296875 0.4375 -0.453125 0.21875q-4.296875 0.59375 -8.09375 0.8125q-0.4375 1.484375 -1.484375 3.421875l-1.2499924 -0.96875q1.1874924 -1.78125 1.7812424 -4.0l1.03125 0.4375zm6.90625 0.890625q1.1875 1.109375 1.921875 2.375l-1.546875 0.96875q-0.59375 -1.265625 -1.71875 -2.375l1.34375 -0.96875zm8.6875 9.0625q-0.890625 2.59375 -2.078125 5.34375q0.21875 0.515625 -0.234375 0.4375l-1.40625 -1.1875q0.8125 -1.328125 2.453125 -5.484375l1.265625 0.890625zm-0.828125 -2.75q-1.109375 -0.890625 -2.671875 -1.703125l0.828125 -1.265625q1.40625 0.4375 2.734375 1.5625l-0.890625 1.40625zm8.90625 3.34375l0 -2.75l-2.515625 0l0 2.75l2.515625 0zm1.265625 2.0l-1.265625 0l0 -0.8125l-2.515625 0l0 1.1875l-1.265625 0l0 -6.3125l5.046875 0l0 5.9375zm0.8125 -7.796875l-6.75 0l0 -1.40625l6.75 0l0 1.40625zm2.15625 9.953125q0 1.03125 -0.96875 1.03125l-1.546875 0l-0.296875 -1.40625l1.03125 0q0.296875 0 0.296875 -0.296875l0 -12.765625l-8.09375 0l0 14.46875l-1.484375 0l0 -15.875l11.0625 0l0 14.84375zm-14.390625 -15.078125q1.484375 0.671875 2.59375 1.859375l-0.890625 1.34375q-0.96875 -1.046875 -2.53125 -1.859375l0.828125 -1.34375z" fill-rule="nonzero"/><path fill="#000000" fill-opacity="0.0" d="m253.4943 73.86977l-79.43306 -0.50393677" fill-rule="evenodd"/><path stroke="#000000" stroke-width="1.0" stroke-linejoin="round" stroke-linecap="butt" d="m253.4943 73.86977l-79.43306 -0.50393677" fill-rule="evenodd"/><path fill="#cfe2f3" d="m714.7087 177.11548l33.228027 -3.2043457E-4l16.614502 -19.34613l16.61444 19.34613l33.228027 3.2043457E-4l-16.613586 19.346466l16.613586 19.34645l-33.228027 3.3569336E-4l-16.61444 19.34613l-16.614502 -19.34613l-33.228027 -3.3569336E-4l16.613586 -19.34645z" fill-rule="evenodd"/><path stroke="#000000" stroke-width="1.0" stroke-linejoin="round" stroke-linecap="butt" d="m714.7087 177.11548l33.228027 -3.2043457E-4l16.614502 -19.34613l16.61444 19.34613l33.228027 3.2043457E-4l-16.613586 19.346466l16.613586 19.34645l-33.228027 3.3569336E-4l-16.61444 19.34613l-16.614502 -19.34613l-33.228027 -3.3569336E-4l16.613586 -19.34645z" fill-rule="evenodd"/><path fill="#000000" fill-opacity="0.0" d="m729.71655 176.45145l78.99213 0l0 38.078735l-78.99213 0z" fill-rule="evenodd"/><path fill="#000000" d="m744.65405 189.12144q-0.734375 2.8125 -1.265625 4.078125q0.75 0.078125 0.15625 0.453125l0 11.125l-1.484375 0l0 -9.421875q-0.671875 1.1875 -1.703125 2.375l-0.75 -1.5625q2.53125 -2.671875 3.484375 -7.859375l1.78125 0.4375q0.296875 0.296875 -0.21875 0.375zm6.75 -0.671875q0.59375 0.078125 0.078125 0.453125l0 12.765625l2.828125 0l0 -9.796875l1.40625 0q0.59375 0.0625 0.078125 0.4375l0 11.953125l-1.484375 0l0 -1.1875l-7.125 0l0 1.40625l-1.484375 0l0 -12.609375l1.40625 0q0.59375 0.0625 0.078125 0.4375l0 9.359375l2.8125 0l0 -13.21875l1.40625 0zm14.78125 0.296875l1.625 0q0.75 0.15625 0.078125 0.59375l0 3.046875q0.515625 7.125 7.5625 10.171875l-0.890625 1.859375q-5.109375 -2.234375 -7.265625 -8.09375q-1.5625 5.5625 -7.046875 8.09375l-1.125 -1.640625q7.0625 -2.75 7.0625 -10.171875l0 -3.859375zm19.296875 4.15625q-0.453125 1.34375 -1.046875 2.59375q0.890625 0.234375 0.15625 0.53125l0 8.984375l-1.484375 0l0 -7.203125q-0.59375 0.953125 -1.265625 1.546875l-0.890625 -1.40625q2.375 -2.671875 3.046875 -5.859375l1.703125 0.375q0.296875 0.21875 -0.21875 0.4375zm1.703125 4.75q1.265625 1.34375 1.921875 2.890625l-1.546875 0.96875q-0.671875 -1.5625 -1.78125 -2.890625l1.40625 -0.96875zm3.046875 -2.890625l0 -2.75l1.40625 0q0.59375 0.078125 0.078125 0.453125l0 2.296875l2.671875 0l0 1.40625l-2.671875 0l0 7.5q0 1.1875 -1.1875 1.1875l-1.484375 0l-0.234375 -1.40625l1.125 0q0.296875 0 0.296875 -0.296875l0 -6.984375l-4.609375 0l0 -1.40625l4.609375 0zm-9.5 -3.265625l0 6.53125q0 4.53125 -1.78125 6.90625l-1.265625 -1.1875q1.5625 -2.3125 1.5625 -5.640625l0 -8.015625l6.53125 0l0 -2.15625l1.625 0q0.75 0.140625 0.078125 0.59375l0 1.5625l6.75 0l0 1.40625l-13.5 0z" fill-rule="nonzero"/><path fill="#000000" fill-opacity="0.0" d="m491.64566 594.53546l1.0708618 -25.35437" fill-rule="evenodd"/><path stroke="#000000" stroke-width="1.0" stroke-linejoin="round" stroke-linecap="butt" d="m491.64566 594.53546l1.0708618 -25.35437" fill-rule="evenodd"/><path fill="#000000" fill-opacity="0.0" d="m692.70166 348.80676l71.84253 -113.63779" fill-rule="evenodd"/><path stroke="#000000" stroke-width="1.0" stroke-linejoin="round" stroke-linecap="butt" d="m692.70166 348.80676l71.84253 -113.63779" fill-rule="evenodd"/><path fill="#000000" fill-opacity="0.0" d="m714.7087 215.8084l-79.02362 33.606308" fill-rule="evenodd"/><path stroke="#000000" stroke-width="1.0" stroke-linejoin="round" stroke-linecap="butt" d="m714.7087 215.8084l-79.02362 33.606308" fill-rule="evenodd"/><path fill="#000000" fill-opacity="0.0" d="m367.39194 73.86977l48.724396 0" fill-rule="evenodd"/><path stroke="#000000" stroke-width="1.0" stroke-linejoin="round" stroke-linecap="butt" d="m367.39194 73.86977l48.724396 0" fill-rule="evenodd"/><path fill="#000000" fill-opacity="0.0" d="m174.05598 383.32138l0 0c0 -4.3371887 3.515976 -7.85318 7.8531647 -7.85318l98.18341 0c2.0827942 0 4.0802917 0.8273926 5.5530396 2.3001404c1.4727478 1.4727478 2.3001404 3.4702454 2.3001404 5.5530396l0 31.411743c0 4.3371887 -3.5159912 7.85318 -7.85318 7.85318l-98.18341 0c-4.3371887 0 -7.8531647 -3.5159912 -7.8531647 -7.85318z" fill-rule="evenodd"/><path stroke="#000000" stroke-width="1.0" stroke-linejoin="round" stroke-linecap="butt" d="m174.05598 383.32138l0 0c0 -4.3371887 3.515976 -7.85318 7.8531647 -7.85318l98.18341 0c2.0827942 0 4.0802917 0.8273926 5.5530396 2.3001404c1.4727478 1.4727478 2.3001404 3.4702454 2.3001404 5.5530396l0 31.411743c0 4.3371887 -3.5159912 7.85318 -7.85318 7.85318l-98.18341 0c-4.3371887 0 -7.8531647 -3.5159912 -7.8531647 -7.85318z" fill-rule="evenodd"/><path fill="#000000" fill-opacity="0.0" d="m181.16798 380.52756l93.03935 0l0 38.078735l-93.03935 0z" fill-rule="evenodd"/><path fill="#000000" d="m203.73772 394.4007q0 -1.015625 -0.0625 -1.890625l1.59375 0q-0.21875 1.015625 -0.21875 2.328125l0 1.390625q0.734375 0 1.671875 -0.078125l0 1.3125q-0.875 -0.078125 -1.671875 -0.078125l0 2.703125q0.359375 -0.4375 0.65625 -0.734375q1.09375 1.390625 1.96875 3.0q-0.734375 0.28125 -1.171875 0.640625q-0.71875 -1.453125 -1.453125 -2.546875l0 5.828125q0 1.3125 0.078125 2.84375l-1.453125 0q0.0625 -1.53125 0.0625 -2.84375l0 -4.65625q-0.4375 1.375 -1.59375 3.34375q-0.296875 -0.65625 -0.953125 -1.3125q0.953125 -1.234375 1.609375 -3.09375q0.65625 -1.859375 0.796875 -3.171875q-0.953125 0 -1.96875 0.078125l0 -1.3125q1.09375 0.078125 2.109375 0.078125l0 -1.828125zm8.015625 0.4375q-0.21875 2.328125 -0.578125 4.015625q-0.359375 1.671875 -0.734375 2.546875q1.09375 1.671875 2.34375 3.71875q-0.65625 0.359375 -1.25 0.9375q-0.5 -1.234375 -1.671875 -3.125q-0.515625 1.09375 -1.203125 2.21875q-0.6875 1.125 -1.640625 2.15625q-0.65625 -0.59375 -1.3125 -0.953125q1.171875 -0.953125 1.96875 -2.1875q0.796875 -1.234375 1.3125 -2.546875q-0.359375 -0.875 -2.046875 -3.203125q0.59375 -0.21875 1.03125 -0.65625q0.9375 1.15625 1.59375 2.328125q0.59375 -2.046875 0.734375 -4.078125l-1.609375 0q-1.015625 0 -1.75 0.0625l0 -1.3125q0.65625 0.078125 1.75 0.078125l3.0625 0zm3.5 1.453125q-0.078125 -2.6875 -0.078125 -3.78125l1.46875 0q-0.078125 1.09375 -0.078125 3.78125q0.734375 0 1.609375 -0.140625l0 1.390625q-0.953125 -0.078125 -1.609375 -0.078125l0 10.28125q-0.078125 0.71875 -0.59375 1.046875q-0.5 0.328125 -1.8125 0.484375q-0.140625 -0.8125 -0.65625 -1.609375q1.09375 0.078125 1.453125 -0.03125q0.375 -0.109375 0.296875 -0.984375l0 -9.1875q-2.109375 0 -3.125 0.078125l0 -1.3125q0.9375 0.0625 3.125 0.0625zm-2.109375 2.921875q1.015625 2.109375 1.8125 3.78125q-0.9375 0.4375 -1.234375 0.734375q-0.71875 -2.03125 -1.8125 -3.859375q0.875 -0.515625 1.234375 -0.65625z" fill-rule="nonzero"/><path fill="#000000" d="m239.647 401.2132l2.59375 0l0.890625 -1.9375l-4.15625 0l0 1.78125q0 5.046875 -2.078125 7.65625l-1.34375 -0.96875q1.9375 -2.234375 1.9375 -6.984375l0 -7.859375l13.578125 0l0 3.78125l-12.09375 0l0 1.1875l13.140625 0l0 1.40625l-3.859375 0q2.140625 1.484375 3.484375 2.90625l-1.265625 0.890625l-1.03125 -1.046875l-3.265625 0.21875l0 1.78125l4.59375 0l0 1.421875l-4.59375 0l0 1.78125l6.453125 0l0 1.40625l-14.171875 0l0 -1.40625l6.234375 0l0 -1.78125l-4.609375 0l0 -1.421875l4.609375 0l0 -1.625l-4.015625 0.140625q-0.140625 0.59375 -0.515625 0.078125l-0.515625 -1.40625zm9.9375 -5.71875l0 -1.40625l-10.609375 0l0 1.40625l10.609375 0zm-4.671875 3.78125l-1.265625 1.9375l4.671875 -0.15625l-1.25 -0.953125l0.890625 -0.828125l-3.046875 0z" fill-rule="nonzero"/><path fill="#000000" fill-opacity="0.0" d="m287.94574 399.02725l0 0" fill-rule="evenodd"/><path stroke="#000000" stroke-width="1.0" stroke-linejoin="round" stroke-linecap="butt" d="m287.94574 399.02725l0 0" fill-rule="evenodd"/><path fill="#000000" fill-opacity="0.0" d="m287.93787 399.04037l46.86615 -0.9763794" fill-rule="evenodd"/><path stroke="#000000" stroke-width="1.0" stroke-linejoin="round" stroke-linecap="butt" d="m287.93787 399.04037l46.86615 -0.9763794" fill-rule="evenodd"/></g></svg>